solid OpenSCAD_Model
  facet normal 1 -0 0
    outer loop
      vertex 100 0 2
      vertex 100 44 0
      vertex 100 44 2
    endloop
  endfacet
  facet normal 1 0 0
    outer loop
      vertex 100 44 0
      vertex 100 0 2
      vertex 100 0 0
    endloop
  endfacet
  facet normal 0 0 1
    outer loop
      vertex 100 44 2
      vertex 82.15 31.15 2
      vertex 100 0 2
    endloop
  endfacet
  facet normal 0 0 1
    outer loop
      vertex 100 44 2
      vertex 17.85 31.15 2
      vertex 82.15 31.15 2
    endloop
  endfacet
  facet normal 0 0 1
    outer loop
      vertex 17.85 31.15 2
      vertex 0 44 2
      vertex 17.85 12.85 2
    endloop
  endfacet
  facet normal -0 0 1
    outer loop
      vertex 0 44 2
      vertex 17.85 31.15 2
      vertex 100 44 2
    endloop
  endfacet
  facet normal -0 0 1
    outer loop
      vertex 82.15 12.85 2
      vertex 100 0 2
      vertex 82.15 31.15 2
    endloop
  endfacet
  facet normal -0 0 1
    outer loop
      vertex 17.85 12.85 2
      vertex 100 0 2
      vertex 82.15 12.85 2
    endloop
  endfacet
  facet normal 0 0 1
    outer loop
      vertex 17.85 12.85 2
      vertex 0 0 2
      vertex 100 0 2
    endloop
  endfacet
  facet normal 0 0 1
    outer loop
      vertex 0 0 2
      vertex 17.85 12.85 2
      vertex 0 44 2
    endloop
  endfacet
  facet normal 0 0 -1
    outer loop
      vertex 100 0 0
      vertex 82.15 12.85 0
      vertex 100 44 0
    endloop
  endfacet
  facet normal 0 0 -1
    outer loop
      vertex 100 0 0
      vertex 17.85 12.85 0
      vertex 82.15 12.85 0
    endloop
  endfacet
  facet normal -0 0 -1
    outer loop
      vertex 17.85 12.85 0
      vertex 0 0 0
      vertex 17.85 31.15 0
    endloop
  endfacet
  facet normal 0 0 -1
    outer loop
      vertex 0 0 0
      vertex 17.85 12.85 0
      vertex 100 0 0
    endloop
  endfacet
  facet normal 0 0 -1
    outer loop
      vertex 82.15 31.15 0
      vertex 100 44 0
      vertex 82.15 12.85 0
    endloop
  endfacet
  facet normal 0 0 -1
    outer loop
      vertex 17.85 31.15 0
      vertex 100 44 0
      vertex 82.15 31.15 0
    endloop
  endfacet
  facet normal 0 0 -1
    outer loop
      vertex 17.85 31.15 0
      vertex 0 44 0
      vertex 100 44 0
    endloop
  endfacet
  facet normal 0 0 -1
    outer loop
      vertex 0 44 0
      vertex 17.85 31.15 0
      vertex 0 0 0
    endloop
  endfacet
  facet normal -1 0 0
    outer loop
      vertex 0 0 0
      vertex 0 44 2
      vertex 0 44 0
    endloop
  endfacet
  facet normal -1 -0 0
    outer loop
      vertex 0 44 2
      vertex 0 0 0
      vertex 0 0 2
    endloop
  endfacet
  facet normal 0 1 -0
    outer loop
      vertex 100 44 0
      vertex 0 44 2
      vertex 100 44 2
    endloop
  endfacet
  facet normal 0 1 0
    outer loop
      vertex 0 44 2
      vertex 100 44 0
      vertex 0 44 0
    endloop
  endfacet
  facet normal 0 -1 0
    outer loop
      vertex 0 0 0
      vertex 100 0 2
      vertex 0 0 2
    endloop
  endfacet
  facet normal 0 -1 -0
    outer loop
      vertex 100 0 2
      vertex 0 0 0
      vertex 100 0 0
    endloop
  endfacet
  facet normal -1 0 0
    outer loop
      vertex 82.15 12.85 0
      vertex 82.15 31.15 2
      vertex 82.15 31.15 0
    endloop
  endfacet
  facet normal -1 -0 0
    outer loop
      vertex 82.15 31.15 2
      vertex 82.15 12.85 0
      vertex 82.15 12.85 2
    endloop
  endfacet
  facet normal 1 -0 0
    outer loop
      vertex 17.85 12.85 2
      vertex 17.85 31.15 0
      vertex 17.85 31.15 2
    endloop
  endfacet
  facet normal 1 0 0
    outer loop
      vertex 17.85 31.15 0
      vertex 17.85 12.85 2
      vertex 17.85 12.85 0
    endloop
  endfacet
  facet normal 0 -1 0
    outer loop
      vertex 17.85 31.15 0
      vertex 82.15 31.15 2
      vertex 17.85 31.15 2
    endloop
  endfacet
  facet normal 0 -1 -0
    outer loop
      vertex 82.15 31.15 2
      vertex 17.85 31.15 0
      vertex 82.15 31.15 0
    endloop
  endfacet
  facet normal 0 1 -0
    outer loop
      vertex 82.15 12.85 0
      vertex 17.85 12.85 2
      vertex 82.15 12.85 2
    endloop
  endfacet
  facet normal 0 1 0
    outer loop
      vertex 17.85 12.85 2
      vertex 82.15 12.85 0
      vertex 17.85 12.85 0
    endloop
  endfacet
endsolid OpenSCAD_Model
