solid OpenSCAD_Model
  facet normal 1 -0 0
    outer loop
      vertex 115.85 10.85 15
      vertex 115.85 28.85 10
      vertex 115.85 28.85 15
    endloop
  endfacet
  facet normal 1 0 0
    outer loop
      vertex 115.85 28.85 10
      vertex 115.85 10.85 15
      vertex 115.85 10.85 10
    endloop
  endfacet
  facet normal 0 0 1
    outer loop
      vertex 112.45 13.3 15
      vertex 115.85 28.85 15
      vertex 112.45 26.7 15
    endloop
  endfacet
  facet normal 0 0 1
    outer loop
      vertex 115.85 28.85 15
      vertex 55.55 26.7 15
      vertex 112.45 26.7 15
    endloop
  endfacet
  facet normal 0 0 1
    outer loop
      vertex 55.55 26.7 15
      vertex 51.85 28.85 15
      vertex 55.55 13.3 15
    endloop
  endfacet
  facet normal -0 0 1
    outer loop
      vertex 51.85 28.85 15
      vertex 55.55 26.7 15
      vertex 115.85 28.85 15
    endloop
  endfacet
  facet normal 0 0 1
    outer loop
      vertex 115.85 28.85 15
      vertex 112.45 13.3 15
      vertex 115.85 10.85 15
    endloop
  endfacet
  facet normal -0 0 1
    outer loop
      vertex 55.55 13.3 15
      vertex 115.85 10.85 15
      vertex 112.45 13.3 15
    endloop
  endfacet
  facet normal 0 0 1
    outer loop
      vertex 55.55 13.3 15
      vertex 51.85 10.85 15
      vertex 115.85 10.85 15
    endloop
  endfacet
  facet normal 0 0 1
    outer loop
      vertex 51.85 10.85 15
      vertex 55.55 13.3 15
      vertex 51.85 28.85 15
    endloop
  endfacet
  facet normal 0 0 -1
    outer loop
      vertex 87 9 0
      vertex 89 12 0
      vertex 89 9 0
    endloop
  endfacet
  facet normal -0 0 -1
    outer loop
      vertex 89 12 0
      vertex 87 9 0
      vertex 87 12 0
    endloop
  endfacet
  facet normal 0 0 -1
    outer loop
      vertex 79 9 0
      vertex 81 12 0
      vertex 81 9 0
    endloop
  endfacet
  facet normal -0 0 -1
    outer loop
      vertex 81 12 0
      vertex 79 9 0
      vertex 79 12 0
    endloop
  endfacet
  facet normal 0 0 -1
    outer loop
      vertex 81 0 0
      vertex 79 5 0
      vertex 81 6 0
    endloop
  endfacet
  facet normal 0 0 -1
    outer loop
      vertex 81 0 0
      vertex 5 5 0
      vertex 79 5 0
    endloop
  endfacet
  facet normal -0 0 -1
    outer loop
      vertex 5 5 0
      vertex 0 0 0
      vertex 5 35 0
    endloop
  endfacet
  facet normal 0 0 -1
    outer loop
      vertex 0 0 0
      vertex 5 5 0
      vertex 81 0 0
    endloop
  endfacet
  facet normal -0 0 -1
    outer loop
      vertex 81 6 0
      vertex 79 5 0
      vertex 79 6 0
    endloop
  endfacet
  facet normal 0 0 -1
    outer loop
      vertex 168 0 0
      vertex 163 5 0
      vertex 168 40 0
    endloop
  endfacet
  facet normal 0 0 -1
    outer loop
      vertex 87 0 0
      vertex 163 5 0
      vertex 168 0 0
    endloop
  endfacet
  facet normal -0 0 -1
    outer loop
      vertex 163 5 0
      vertex 87 0 0
      vertex 89 5 0
    endloop
  endfacet
  facet normal 0 0 -1
    outer loop
      vertex 87 6 0
      vertex 89 5 0
      vertex 87 0 0
    endloop
  endfacet
  facet normal 0 0 -1
    outer loop
      vertex 89 5 0
      vertex 87 6 0
      vertex 89 6 0
    endloop
  endfacet
  facet normal 0 0 -1
    outer loop
      vertex 163 35 0
      vertex 168 40 0
      vertex 163 5 0
    endloop
  endfacet
  facet normal 0 0 -1
    outer loop
      vertex 5 35 0
      vertex 168 40 0
      vertex 163 35 0
    endloop
  endfacet
  facet normal 0 0 -1
    outer loop
      vertex 5 35 0
      vertex 0 40 0
      vertex 168 40 0
    endloop
  endfacet
  facet normal 0 0 -1
    outer loop
      vertex 0 40 0
      vertex 5 35 0
      vertex 0 0 0
    endloop
  endfacet
  facet normal -1 0 0
    outer loop
      vertex 51.85 10.85 10
      vertex 51.85 28.85 15
      vertex 51.85 28.85 10
    endloop
  endfacet
  facet normal -1 -0 0
    outer loop
      vertex 51.85 28.85 15
      vertex 51.85 10.85 10
      vertex 51.85 10.85 15
    endloop
  endfacet
  facet normal 0 1 -0
    outer loop
      vertex 115.85 28.85 10
      vertex 51.85 28.85 15
      vertex 115.85 28.85 15
    endloop
  endfacet
  facet normal 0 1 0
    outer loop
      vertex 51.85 28.85 15
      vertex 115.85 28.85 10
      vertex 51.85 28.85 10
    endloop
  endfacet
  facet normal 0 -1 0
    outer loop
      vertex 51.85 10.85 10
      vertex 115.85 10.85 15
      vertex 51.85 10.85 15
    endloop
  endfacet
  facet normal 0 -1 -0
    outer loop
      vertex 115.85 10.85 15
      vertex 51.85 10.85 10
      vertex 115.85 10.85 10
    endloop
  endfacet
  facet normal -1 0 0
    outer loop
      vertex 112.45 13.3 10
      vertex 112.45 26.7 15
      vertex 112.45 26.7 10
    endloop
  endfacet
  facet normal -1 -0 0
    outer loop
      vertex 112.45 26.7 15
      vertex 112.45 13.3 10
      vertex 112.45 13.3 15
    endloop
  endfacet
  facet normal 1 -0 0
    outer loop
      vertex 55.55 13.3 15
      vertex 55.55 26.7 10
      vertex 55.55 26.7 15
    endloop
  endfacet
  facet normal 1 0 0
    outer loop
      vertex 55.55 26.7 10
      vertex 55.55 13.3 15
      vertex 55.55 13.3 10
    endloop
  endfacet
  facet normal 0 -1 0
    outer loop
      vertex 55.55 26.7 10
      vertex 112.45 26.7 15
      vertex 55.55 26.7 15
    endloop
  endfacet
  facet normal 0 -1 -0
    outer loop
      vertex 112.45 26.7 15
      vertex 55.55 26.7 10
      vertex 112.45 26.7 10
    endloop
  endfacet
  facet normal 0 1 -0
    outer loop
      vertex 112.45 13.3 10
      vertex 55.55 13.3 15
      vertex 112.45 13.3 15
    endloop
  endfacet
  facet normal 0 1 0
    outer loop
      vertex 55.55 13.3 15
      vertex 112.45 13.3 10
      vertex 55.55 13.3 10
    endloop
  endfacet
  facet normal 0 0 1
    outer loop
      vertex 134 40 10
      vertex 115.85 28.85 10
      vertex 134 0 10
    endloop
  endfacet
  facet normal 0 0 1
    outer loop
      vertex 134 40 10
      vertex 51.85 28.85 10
      vertex 115.85 28.85 10
    endloop
  endfacet
  facet normal 0 0 1
    outer loop
      vertex 34 0 10
      vertex 51.85 28.85 10
      vertex 34 40 10
    endloop
  endfacet
  facet normal -0 0 1
    outer loop
      vertex 34 40 10
      vertex 51.85 28.85 10
      vertex 134 40 10
    endloop
  endfacet
  facet normal -0 0 1
    outer loop
      vertex 115.85 10.85 10
      vertex 134 0 10
      vertex 115.85 28.85 10
    endloop
  endfacet
  facet normal -0 0 1
    outer loop
      vertex 51.85 10.85 10
      vertex 134 0 10
      vertex 115.85 10.85 10
    endloop
  endfacet
  facet normal 0 0 1
    outer loop
      vertex 51.85 10.85 10
      vertex 34 0 10
      vertex 134 0 10
    endloop
  endfacet
  facet normal 0 0 1
    outer loop
      vertex 51.85 28.85 10
      vertex 34 0 10
      vertex 51.85 10.85 10
    endloop
  endfacet
  facet normal 0 0 1
    outer loop
      vertex 112.45 26.7 10
      vertex 111.15 24 10
      vertex 112.45 13.3 10
    endloop
  endfacet
  facet normal 0 0 1
    outer loop
      vertex 112.45 26.7 10
      vertex 56.85 24 10
      vertex 111.15 24 10
    endloop
  endfacet
  facet normal 0 0 1
    outer loop
      vertex 56.85 24 10
      vertex 55.55 26.7 10
      vertex 56.85 16 10
    endloop
  endfacet
  facet normal -0 0 1
    outer loop
      vertex 55.55 26.7 10
      vertex 56.85 24 10
      vertex 112.45 26.7 10
    endloop
  endfacet
  facet normal -0 0 1
    outer loop
      vertex 111.15 16 10
      vertex 112.45 13.3 10
      vertex 111.15 24 10
    endloop
  endfacet
  facet normal -0 0 1
    outer loop
      vertex 56.85 16 10
      vertex 112.45 13.3 10
      vertex 111.15 16 10
    endloop
  endfacet
  facet normal 0 0 1
    outer loop
      vertex 56.85 16 10
      vertex 55.55 13.3 10
      vertex 112.45 13.3 10
    endloop
  endfacet
  facet normal 0 0 1
    outer loop
      vertex 55.55 13.3 10
      vertex 56.85 16 10
      vertex 55.55 26.7 10
    endloop
  endfacet
  facet normal 0 1 -0
    outer loop
      vertex 168 40 0
      vertex 134 40 10
      vertex 168 40 0.0999994
    endloop
  endfacet
  facet normal 0 1 0
    outer loop
      vertex 134 40 10
      vertex 168 40 0
      vertex 34 40 10
    endloop
  endfacet
  facet normal 0 1 0
    outer loop
      vertex 0 40 0
      vertex 34 40 10
      vertex 168 40 0
    endloop
  endfacet
  facet normal 0 1 0
    outer loop
      vertex 34 40 10
      vertex 0 40 0
      vertex 0 40 0.0999994
    endloop
  endfacet
  facet normal 0.279566 0 0.960126
    outer loop
      vertex 134 40 10
      vertex 168 0 0.0999994
      vertex 168 40 0.0999994
    endloop
  endfacet
  facet normal 0.279566 0 0.960126
    outer loop
      vertex 168 0 0.0999994
      vertex 134 40 10
      vertex 134 0 10
    endloop
  endfacet
  facet normal 1 -0 0
    outer loop
      vertex 168 0 0.0999994
      vertex 168 40 0
      vertex 168 40 0.0999994
    endloop
  endfacet
  facet normal 1 0 0
    outer loop
      vertex 168 40 0
      vertex 168 0 0.0999994
      vertex 168 0 0
    endloop
  endfacet
  facet normal -0.279566 0 0.960126
    outer loop
      vertex 0 40 0.0999994
      vertex 34 0 10
      vertex 34 40 10
    endloop
  endfacet
  facet normal -0.279566 0 0.960126
    outer loop
      vertex 34 0 10
      vertex 0 40 0.0999994
      vertex 0 0 0.0999994
    endloop
  endfacet
  facet normal -1 0 0
    outer loop
      vertex 0 0 0
      vertex 0 40 0.0999994
      vertex 0 40 0
    endloop
  endfacet
  facet normal -1 -0 0
    outer loop
      vertex 0 40 0.0999994
      vertex 0 0 0
      vertex 0 0 0.0999994
    endloop
  endfacet
  facet normal 0 -1 0
    outer loop
      vertex 34 0 10
      vertex 84 0 6
      vertex 134 0 10
    endloop
  endfacet
  facet normal 0 -1 0
    outer loop
      vertex 34 0 10
      vertex 83.5307 0 5.96306
      vertex 84 0 6
    endloop
  endfacet
  facet normal 0 -1 0
    outer loop
      vertex 34 0 10
      vertex 83.073 0 5.85317
      vertex 83.5307 0 5.96306
    endloop
  endfacet
  facet normal 0 -1 0
    outer loop
      vertex 34 0 10
      vertex 82.638 0 5.67302
      vertex 83.073 0 5.85317
    endloop
  endfacet
  facet normal 0 -1 0
    outer loop
      vertex 34 0 10
      vertex 82.2366 0 5.42705
      vertex 82.638 0 5.67302
    endloop
  endfacet
  facet normal 0 -1 0
    outer loop
      vertex 34 0 10
      vertex 81.8787 0 5.12132
      vertex 82.2366 0 5.42705
    endloop
  endfacet
  facet normal 0 -1 0
    outer loop
      vertex 34 0 10
      vertex 81.573 0 4.76336
      vertex 81.8787 0 5.12132
    endloop
  endfacet
  facet normal 0 -1 0
    outer loop
      vertex 34 0 10
      vertex 81.327 0 4.36197
      vertex 81.573 0 4.76336
    endloop
  endfacet
  facet normal 0 -1 0
    outer loop
      vertex 34 0 10
      vertex 81.1468 0 3.92705
      vertex 81.327 0 4.36197
    endloop
  endfacet
  facet normal 0 -1 0
    outer loop
      vertex 34 0 10
      vertex 81.0369 0 3.4693
      vertex 81.1468 0 3.92705
    endloop
  endfacet
  facet normal 0 -1 0
    outer loop
      vertex 34 0 10
      vertex 81 0 3
      vertex 81.0369 0 3.4693
    endloop
  endfacet
  facet normal 0 -1 0
    outer loop
      vertex 34 0 10
      vertex 81 0 2.9
      vertex 81 0 3
    endloop
  endfacet
  facet normal 0 -1 0
    outer loop
      vertex 0 0 0
      vertex 34 0 10
      vertex 0 0 0.0999994
    endloop
  endfacet
  facet normal 0 -1 -0
    outer loop
      vertex 34 0 10
      vertex 0 0 0
      vertex 81 0 0
    endloop
  endfacet
  facet normal 0 -1 0
    outer loop
      vertex 34 0 10
      vertex 81 0 0
      vertex 81 0 2.9
    endloop
  endfacet
  facet normal 0 -1 0
    outer loop
      vertex 84.4693 0 5.96306
      vertex 134 0 10
      vertex 84 0 6
    endloop
  endfacet
  facet normal 0 -1 0
    outer loop
      vertex 84.927 0 5.85317
      vertex 134 0 10
      vertex 84.4693 0 5.96306
    endloop
  endfacet
  facet normal 0 -1 0
    outer loop
      vertex 85.362 0 5.67302
      vertex 134 0 10
      vertex 84.927 0 5.85317
    endloop
  endfacet
  facet normal 0 -1 0
    outer loop
      vertex 85.7634 0 5.42705
      vertex 134 0 10
      vertex 85.362 0 5.67302
    endloop
  endfacet
  facet normal 0 -1 0
    outer loop
      vertex 86.1213 0 5.12132
      vertex 134 0 10
      vertex 85.7634 0 5.42705
    endloop
  endfacet
  facet normal 0 -1 0
    outer loop
      vertex 86.427 0 4.76336
      vertex 134 0 10
      vertex 86.1213 0 5.12132
    endloop
  endfacet
  facet normal 0 -1 0
    outer loop
      vertex 86.673 0 4.36197
      vertex 134 0 10
      vertex 86.427 0 4.76336
    endloop
  endfacet
  facet normal 0 -1 0
    outer loop
      vertex 86.8532 0 3.92705
      vertex 134 0 10
      vertex 86.673 0 4.36197
    endloop
  endfacet
  facet normal 0 -1 0
    outer loop
      vertex 86.9631 0 3.4693
      vertex 134 0 10
      vertex 86.8532 0 3.92705
    endloop
  endfacet
  facet normal 0 -1 0
    outer loop
      vertex 87 0 3
      vertex 134 0 10
      vertex 86.9631 0 3.4693
    endloop
  endfacet
  facet normal 0 -1 0
    outer loop
      vertex 87 0 2.9
      vertex 87 0 3
      vertex 86.9921 0 2.9
    endloop
  endfacet
  facet normal 0 -1 0
    outer loop
      vertex 87 0 3
      vertex 87 0 2.9
      vertex 134 0 10
    endloop
  endfacet
  facet normal 0 -1 0
    outer loop
      vertex 87 0 0
      vertex 134 0 10
      vertex 87 0 2.9
    endloop
  endfacet
  facet normal 0 -1 0
    outer loop
      vertex 168 0 0
      vertex 134 0 10
      vertex 87 0 0
    endloop
  endfacet
  facet normal 0 -1 0
    outer loop
      vertex 134 0 10
      vertex 168 0 0
      vertex 168 0 0.0999994
    endloop
  endfacet
  facet normal 0 -1 0
    outer loop
      vertex 81 0 3
      vertex 81 0 2.9
      vertex 81.0079 0 2.9
    endloop
  endfacet
  facet normal -1 0 0
    outer loop
      vertex 111.15 16 6.9
      vertex 111.15 24 10
      vertex 111.15 24 6.9
    endloop
  endfacet
  facet normal -1 -0 0
    outer loop
      vertex 111.15 24 10
      vertex 111.15 16 6.9
      vertex 111.15 16 10
    endloop
  endfacet
  facet normal 1 -0 0
    outer loop
      vertex 56.85 16 10
      vertex 56.85 24 6.9
      vertex 56.85 24 10
    endloop
  endfacet
  facet normal 1 0 0
    outer loop
      vertex 56.85 24 6.9
      vertex 56.85 16 10
      vertex 56.85 16 6.9
    endloop
  endfacet
  facet normal 0 -1 0
    outer loop
      vertex 56.85 24 6.9
      vertex 111.15 24 10
      vertex 56.85 24 10
    endloop
  endfacet
  facet normal 0 -1 -0
    outer loop
      vertex 111.15 24 10
      vertex 56.85 24 6.9
      vertex 111.15 24 6.9
    endloop
  endfacet
  facet normal 0 1 -0
    outer loop
      vertex 111.15 16 6.9
      vertex 56.85 16 10
      vertex 111.15 16 10
    endloop
  endfacet
  facet normal 0 1 0
    outer loop
      vertex 56.85 16 10
      vertex 111.15 16 6.9
      vertex 56.85 16 6.9
    endloop
  endfacet
  facet normal 0 0 -1
    outer loop
      vertex 56.85 16 6.9
      vertex 79 6 6.9
      vertex 79 5 6.9
    endloop
  endfacet
  facet normal 0 0 -1
    outer loop
      vertex 79 6 6.9
      vertex 56.85 16 6.9
      vertex 79 9 6.9
    endloop
  endfacet
  facet normal 0 0 -1
    outer loop
      vertex 79 9 6.9
      vertex 56.85 16 6.9
      vertex 79 12 6.9
    endloop
  endfacet
  facet normal -0 0 -1
    outer loop
      vertex 56.85 16 6.9
      vertex 34 5 6.9
      vertex 56.85 24 6.9
    endloop
  endfacet
  facet normal 0 0 -1
    outer loop
      vertex 34 5 6.9
      vertex 56.85 16 6.9
      vertex 79 5 6.9
    endloop
  endfacet
  facet normal 0 0 -1
    outer loop
      vertex 79 6 6.9
      vertex 89 9 6.9
      vertex 89 6 6.9
    endloop
  endfacet
  facet normal -0 0 -1
    outer loop
      vertex 89 9 6.9
      vertex 79 6 6.9
      vertex 79 9 6.9
    endloop
  endfacet
  facet normal 0 0 -1
    outer loop
      vertex 124 5 6.9
      vertex 111.15 16 6.9
      vertex 124 35 6.9
    endloop
  endfacet
  facet normal 0 0 -1
    outer loop
      vertex 89 5 6.9
      vertex 111.15 16 6.9
      vertex 124 5 6.9
    endloop
  endfacet
  facet normal 0 0 -1
    outer loop
      vertex 89 6 6.9
      vertex 111.15 16 6.9
      vertex 89 5 6.9
    endloop
  endfacet
  facet normal 0 0 -1
    outer loop
      vertex 89 9 6.9
      vertex 111.15 16 6.9
      vertex 89 6 6.9
    endloop
  endfacet
  facet normal 0 0 -1
    outer loop
      vertex 89 12 6.9
      vertex 111.15 16 6.9
      vertex 89 9 6.9
    endloop
  endfacet
  facet normal 0 0 -1
    outer loop
      vertex 79 12 6.9
      vertex 111.15 16 6.9
      vertex 89 12 6.9
    endloop
  endfacet
  facet normal -0 0 -1
    outer loop
      vertex 111.15 16 6.9
      vertex 79 12 6.9
      vertex 56.85 16 6.9
    endloop
  endfacet
  facet normal 0 0 -1
    outer loop
      vertex 111.15 24 6.9
      vertex 124 35 6.9
      vertex 111.15 16 6.9
    endloop
  endfacet
  facet normal 0 0 -1
    outer loop
      vertex 56.85 24 6.9
      vertex 124 35 6.9
      vertex 111.15 24 6.9
    endloop
  endfacet
  facet normal 0 0 -1
    outer loop
      vertex 56.85 24 6.9
      vertex 34 35 6.9
      vertex 124 35 6.9
    endloop
  endfacet
  facet normal 0 0 -1
    outer loop
      vertex 34 35 6.9
      vertex 56.85 24 6.9
      vertex 34 5 6.9
    endloop
  endfacet
  facet normal 0 -1 0
    outer loop
      vertex 5 35 0
      vertex 124 35 6.9
      vertex 34 35 6.9
    endloop
  endfacet
  facet normal 0 -1 -0
    outer loop
      vertex 124 35 6.9
      vertex 5 35 0
      vertex 163 35 0
    endloop
  endfacet
  facet normal -0.174217 0 -0.984707
    outer loop
      vertex 124 5 6.9
      vertex 163 35 0
      vertex 163 5 0
    endloop
  endfacet
  facet normal -0.174217 0 -0.984707
    outer loop
      vertex 163 35 0
      vertex 124 5 6.9
      vertex 124 35 6.9
    endloop
  endfacet
  facet normal 0.231469 0 -0.972842
    outer loop
      vertex 5 5 0
      vertex 34 35 6.9
      vertex 34 5 6.9
    endloop
  endfacet
  facet normal 0.231469 0 -0.972842
    outer loop
      vertex 34 35 6.9
      vertex 5 5 0
      vertex 5 35 0
    endloop
  endfacet
  facet normal 0 1 -0
    outer loop
      vertex 79 5 0
      vertex 34 5 6.9
      vertex 79 5 6.9
    endloop
  endfacet
  facet normal 0 1 0
    outer loop
      vertex 34 5 6.9
      vertex 79 5 0
      vertex 5 5 0
    endloop
  endfacet
  facet normal 0 1 0
    outer loop
      vertex 89 5 0
      vertex 124 5 6.9
      vertex 163 5 0
    endloop
  endfacet
  facet normal 0 1 0
    outer loop
      vertex 124 5 6.9
      vertex 89 5 0
      vertex 89 5 6.9
    endloop
  endfacet
  facet normal -1 0 0
    outer loop
      vertex 87 6 0
      vertex 87 5 2.9
      vertex 87 6 1.9
    endloop
  endfacet
  facet normal -1 0 0
    outer loop
      vertex 87 0 0
      vertex 87 5 2.9
      vertex 87 6 0
    endloop
  endfacet
  facet normal -1 -0 0
    outer loop
      vertex 87 5 2.9
      vertex 87 0 0
      vertex 87 0 2.9
    endloop
  endfacet
  facet normal -1 0 0
    outer loop
      vertex 87 9 1.9
      vertex 87 12 0
      vertex 87 9 0
    endloop
  endfacet
  facet normal -1 0 0
    outer loop
      vertex 87 12 0
      vertex 87 9 1.9
      vertex 87 12 2.9
    endloop
  endfacet
  facet normal -1 0 0
    outer loop
      vertex 87 5 2.9
      vertex 87 9 1.9
      vertex 87 6 1.9
    endloop
  endfacet
  facet normal -1 0 0
    outer loop
      vertex 87 9 1.9
      vertex 87 5 2.9
      vertex 87 12 2.9
    endloop
  endfacet
  facet normal 0 0 -1
    outer loop
      vertex 81 5 2.9
      vertex 81.0079 0 2.9
      vertex 81 0 2.9
    endloop
  endfacet
  facet normal 0 0 -1
    outer loop
      vertex 81.0079 0 2.9
      vertex 81 5 2.9
      vertex 81.0079 12 2.9
    endloop
  endfacet
  facet normal -0 0 -1
    outer loop
      vertex 81.0079 12 2.9
      vertex 81 5 2.9
      vertex 81 12 2.9
    endloop
  endfacet
  facet normal 0 0 -1
    outer loop
      vertex 86.9921 0 2.9
      vertex 87 5 2.9
      vertex 87 0 2.9
    endloop
  endfacet
  facet normal 0 0 -1
    outer loop
      vertex 86.9921 12 2.9
      vertex 87 5 2.9
      vertex 86.9921 0 2.9
    endloop
  endfacet
  facet normal 0 0 -1
    outer loop
      vertex 87 5 2.9
      vertex 86.9921 12 2.9
      vertex 87 12 2.9
    endloop
  endfacet
  facet normal 1 0 0
    outer loop
      vertex 81 12 2.9
      vertex 81 9 1.9
      vertex 81 12 0
    endloop
  endfacet
  facet normal 1 -0 0
    outer loop
      vertex 81 5 2.9
      vertex 81 9 1.9
      vertex 81 12 2.9
    endloop
  endfacet
  facet normal 1 0 0
    outer loop
      vertex 81 9 1.9
      vertex 81 5 2.9
      vertex 81 6 1.9
    endloop
  endfacet
  facet normal 1 0 0
    outer loop
      vertex 81 5 2.9
      vertex 81 6 0
      vertex 81 6 1.9
    endloop
  endfacet
  facet normal 1 0 0
    outer loop
      vertex 81 0 0
      vertex 81 5 2.9
      vertex 81 0 2.9
    endloop
  endfacet
  facet normal 1 0 0
    outer loop
      vertex 81 5 2.9
      vertex 81 0 0
      vertex 81 6 0
    endloop
  endfacet
  facet normal 1 0 0
    outer loop
      vertex 81 12 0
      vertex 81 9 1.9
      vertex 81 9 0
    endloop
  endfacet
  facet normal 0.233457 0 -0.972367
    outer loop
      vertex 83.073 9 5.85317
      vertex 83.5307 12 5.96306
      vertex 83.5307 9 5.96306
    endloop
  endfacet
  facet normal 0.233457 0 -0.972367
    outer loop
      vertex 83.5307 12 5.96306
      vertex 83.073 9 5.85317
      vertex 83.073 12 5.85317
    endloop
  endfacet
  facet normal 0.233457 0 -0.972367
    outer loop
      vertex 83.073 5 5.85317
      vertex 83.5307 5 5.96306
      vertex 83.5307 0 5.96306
    endloop
  endfacet
  facet normal 0.233457 0 -0.972367
    outer loop
      vertex 83.073 5 5.85317
      vertex 83.5307 0 5.96306
      vertex 83.073 0 5.85317
    endloop
  endfacet
  facet normal 0.233457 0 -0.972367
    outer loop
      vertex 83.5307 5 5.96306
      vertex 83.073 5 5.85317
      vertex 83.5307 6 5.96306
    endloop
  endfacet
  facet normal 0.233457 0 -0.972367
    outer loop
      vertex 83.5307 6 5.96306
      vertex 83.073 5 5.85317
      vertex 83.073 6 5.85317
    endloop
  endfacet
  facet normal -0.996894 0 0.0787546
    outer loop
      vertex 86.9921 12 2.9
      vertex 87 5 3
      vertex 87 12 3
    endloop
  endfacet
  facet normal -0.996894 0 0.0787546
    outer loop
      vertex 86.9921 0 2.9
      vertex 87 5 3
      vertex 86.9921 12 2.9
    endloop
  endfacet
  facet normal -0.996894 0 0.0787546
    outer loop
      vertex 87 5 3
      vertex 86.9921 0 2.9
      vertex 87 0 3
    endloop
  endfacet
  facet normal -0.233457 0 -0.972367
    outer loop
      vertex 84.4693 9 5.96306
      vertex 84.927 12 5.85317
      vertex 84.927 9 5.85317
    endloop
  endfacet
  facet normal -0.233457 0 -0.972367
    outer loop
      vertex 84.927 12 5.85317
      vertex 84.4693 9 5.96306
      vertex 84.4693 12 5.96306
    endloop
  endfacet
  facet normal -0.233457 0 -0.972367
    outer loop
      vertex 84.4693 5 5.96306
      vertex 84.927 5 5.85317
      vertex 84.927 0 5.85317
    endloop
  endfacet
  facet normal -0.233457 -0 -0.972367
    outer loop
      vertex 84.4693 5 5.96306
      vertex 84.927 0 5.85317
      vertex 84.4693 0 5.96306
    endloop
  endfacet
  facet normal -0.233457 0 -0.972367
    outer loop
      vertex 84.927 5 5.85317
      vertex 84.4693 5 5.96306
      vertex 84.927 6 5.85317
    endloop
  endfacet
  facet normal -0.233457 0 -0.972367
    outer loop
      vertex 84.927 6 5.85317
      vertex 84.4693 5 5.96306
      vertex 84.4693 6 5.96306
    endloop
  endfacet
  facet normal 0.852614 0 -0.522542
    outer loop
      vertex 81.573 5 4.76336
      vertex 81.327 12 4.36197
      vertex 81.573 12 4.76336
    endloop
  endfacet
  facet normal 0.852614 0 -0.522542
    outer loop
      vertex 81.573 5 4.76336
      vertex 81.327 5 4.36197
      vertex 81.327 12 4.36197
    endloop
  endfacet
  facet normal 0.852614 0 -0.522542
    outer loop
      vertex 81.573 0 4.76336
      vertex 81.327 5 4.36197
      vertex 81.573 5 4.76336
    endloop
  endfacet
  facet normal 0.852614 0 -0.522542
    outer loop
      vertex 81.327 5 4.36197
      vertex 81.573 0 4.76336
      vertex 81.327 0 4.36197
    endloop
  endfacet
  facet normal -0.649515 0 -0.760349
    outer loop
      vertex 85.7634 9 5.42705
      vertex 86.1213 12 5.12132
      vertex 86.1213 9 5.12132
    endloop
  endfacet
  facet normal -0.649515 0 -0.760349
    outer loop
      vertex 86.1213 12 5.12132
      vertex 85.7634 9 5.42705
      vertex 85.7634 12 5.42705
    endloop
  endfacet
  facet normal -0.649515 0 -0.760349
    outer loop
      vertex 85.7634 5 5.42705
      vertex 86.1213 5 5.12132
      vertex 86.1213 0 5.12132
    endloop
  endfacet
  facet normal -0.649515 -0 -0.760349
    outer loop
      vertex 85.7634 5 5.42705
      vertex 86.1213 0 5.12132
      vertex 85.7634 0 5.42705
    endloop
  endfacet
  facet normal -0.649515 0 -0.760349
    outer loop
      vertex 86.1213 5 5.12132
      vertex 85.7634 5 5.42705
      vertex 86.1213 6 5.12132
    endloop
  endfacet
  facet normal -0.649515 0 -0.760349
    outer loop
      vertex 86.1213 6 5.12132
      vertex 85.7634 5 5.42705
      vertex 85.7634 6 5.42705
    endloop
  endfacet
  facet normal 0.0784703 0 -0.996916
    outer loop
      vertex 83.5307 9 5.96306
      vertex 84 12 6
      vertex 84 9 6
    endloop
  endfacet
  facet normal 0.0784703 0 -0.996916
    outer loop
      vertex 84 12 6
      vertex 83.5307 9 5.96306
      vertex 83.5307 12 5.96306
    endloop
  endfacet
  facet normal 0.0784703 0 -0.996916
    outer loop
      vertex 83.5307 5 5.96306
      vertex 84 5 6
      vertex 84 0 6
    endloop
  endfacet
  facet normal 0.0784703 0 -0.996916
    outer loop
      vertex 83.5307 5 5.96306
      vertex 84 0 6
      vertex 83.5307 0 5.96306
    endloop
  endfacet
  facet normal 0.0784703 0 -0.996916
    outer loop
      vertex 84 5 6
      vertex 83.5307 5 5.96306
      vertex 84 6 6
    endloop
  endfacet
  facet normal 0.0784703 0 -0.996916
    outer loop
      vertex 84 6 6
      vertex 83.5307 5 5.96306
      vertex 83.5307 6 5.96306
    endloop
  endfacet
  facet normal -0.996923 0 -0.0783858
    outer loop
      vertex 87 5 3
      vertex 86.9631 12 3.4693
      vertex 87 12 3
    endloop
  endfacet
  facet normal -0.996923 0 -0.0783858
    outer loop
      vertex 87 5 3
      vertex 86.9631 5 3.4693
      vertex 86.9631 12 3.4693
    endloop
  endfacet
  facet normal -0.996923 0 -0.0783858
    outer loop
      vertex 87 0 3
      vertex 86.9631 5 3.4693
      vertex 87 5 3
    endloop
  endfacet
  facet normal -0.996923 -0 -0.0783858
    outer loop
      vertex 86.9631 5 3.4693
      vertex 87 0 3
      vertex 86.9631 0 3.4693
    endloop
  endfacet
  facet normal -0.852614 0 -0.522542
    outer loop
      vertex 86.673 5 4.36197
      vertex 86.427 12 4.76336
      vertex 86.673 12 4.36197
    endloop
  endfacet
  facet normal -0.852614 0 -0.522542
    outer loop
      vertex 86.673 5 4.36197
      vertex 86.427 5 4.76336
      vertex 86.427 12 4.76336
    endloop
  endfacet
  facet normal -0.852614 0 -0.522542
    outer loop
      vertex 86.673 0 4.36197
      vertex 86.427 5 4.76336
      vertex 86.673 5 4.36197
    endloop
  endfacet
  facet normal -0.852614 -0 -0.522542
    outer loop
      vertex 86.427 5 4.76336
      vertex 86.673 0 4.36197
      vertex 86.427 0 4.76336
    endloop
  endfacet
  facet normal 0.649515 0 -0.760349
    outer loop
      vertex 81.8787 9 5.12132
      vertex 82.2366 12 5.42705
      vertex 82.2366 9 5.42705
    endloop
  endfacet
  facet normal 0.649515 0 -0.760349
    outer loop
      vertex 82.2366 12 5.42705
      vertex 81.8787 9 5.12132
      vertex 81.8787 12 5.12132
    endloop
  endfacet
  facet normal 0.649515 0 -0.760349
    outer loop
      vertex 81.8787 5 5.12132
      vertex 82.2366 5 5.42705
      vertex 82.2366 0 5.42705
    endloop
  endfacet
  facet normal 0.649515 0 -0.760349
    outer loop
      vertex 81.8787 5 5.12132
      vertex 82.2366 0 5.42705
      vertex 81.8787 0 5.12132
    endloop
  endfacet
  facet normal 0.649515 0 -0.760349
    outer loop
      vertex 82.2366 5 5.42705
      vertex 81.8787 5 5.12132
      vertex 82.2366 6 5.42705
    endloop
  endfacet
  facet normal 0.649515 0 -0.760349
    outer loop
      vertex 82.2366 6 5.42705
      vertex 81.8787 5 5.12132
      vertex 81.8787 6 5.12132
    endloop
  endfacet
  facet normal -0.972368 0 -0.233453
    outer loop
      vertex 86.9631 5 3.4693
      vertex 86.8532 12 3.92705
      vertex 86.9631 12 3.4693
    endloop
  endfacet
  facet normal -0.972368 0 -0.233453
    outer loop
      vertex 86.9631 5 3.4693
      vertex 86.8532 5 3.92705
      vertex 86.8532 12 3.92705
    endloop
  endfacet
  facet normal -0.972368 0 -0.233453
    outer loop
      vertex 86.9631 0 3.4693
      vertex 86.8532 5 3.92705
      vertex 86.9631 5 3.4693
    endloop
  endfacet
  facet normal -0.972368 -0 -0.233453
    outer loop
      vertex 86.8532 5 3.92705
      vertex 86.9631 0 3.4693
      vertex 86.8532 0 3.92705
    endloop
  endfacet
  facet normal -0.760434 2.03088e-06 -0.649415
    outer loop
      vertex 86.427 12 4.76336
      vertex 86.2249 9 5
      vertex 86.1213 12 5.12132
    endloop
  endfacet
  facet normal -0.760421 0 -0.64943
    outer loop
      vertex 86.427 5 4.76336
      vertex 86.2249 9 5
      vertex 86.427 12 4.76336
    endloop
  endfacet
  facet normal -0.760421 -0 -0.64943
    outer loop
      vertex 86.2249 9 5
      vertex 86.427 5 4.76336
      vertex 86.2249 6 5
    endloop
  endfacet
  facet normal -0.760434 -6.09265e-06 -0.649415
    outer loop
      vertex 86.1213 5 5.12132
      vertex 86.2249 6 5
      vertex 86.427 5 4.76336
    endloop
  endfacet
  facet normal -0.760459 0 -0.649386
    outer loop
      vertex 86.2249 6 5
      vertex 86.1213 5 5.12132
      vertex 86.1213 6 5.12132
    endloop
  endfacet
  facet normal -0.760434 0 -0.649415
    outer loop
      vertex 86.427 0 4.76336
      vertex 86.1213 5 5.12132
      vertex 86.427 5 4.76336
    endloop
  endfacet
  facet normal -0.760434 -0 -0.649415
    outer loop
      vertex 86.1213 5 5.12132
      vertex 86.427 0 4.76336
      vertex 86.1213 0 5.12132
    endloop
  endfacet
  facet normal -0.760459 -0 -0.649386
    outer loop
      vertex 86.1213 12 5.12132
      vertex 86.2249 9 5
      vertex 86.1213 9 5.12132
    endloop
  endfacet
  facet normal 0.923842 0 -0.382775
    outer loop
      vertex 81.327 5 4.36197
      vertex 81.1468 12 3.92705
      vertex 81.327 12 4.36197
    endloop
  endfacet
  facet normal 0.923842 0 -0.382775
    outer loop
      vertex 81.327 5 4.36197
      vertex 81.1468 5 3.92705
      vertex 81.1468 12 3.92705
    endloop
  endfacet
  facet normal 0.923842 0 -0.382775
    outer loop
      vertex 81.327 0 4.36197
      vertex 81.1468 5 3.92705
      vertex 81.327 5 4.36197
    endloop
  endfacet
  facet normal 0.923842 0 -0.382775
    outer loop
      vertex 81.1468 5 3.92705
      vertex 81.327 0 4.36197
      vertex 81.1468 0 3.92705
    endloop
  endfacet
  facet normal 0.996894 -0 0.0787546
    outer loop
      vertex 81 5 3
      vertex 81.0079 12 2.9
      vertex 81 12 3
    endloop
  endfacet
  facet normal 0.996894 0 0.0787546
    outer loop
      vertex 81.0079 0 2.9
      vertex 81 5 3
      vertex 81 0 3
    endloop
  endfacet
  facet normal 0.996894 0 0.0787546
    outer loop
      vertex 81 5 3
      vertex 81.0079 0 2.9
      vertex 81.0079 12 2.9
    endloop
  endfacet
  facet normal -0.382624 0 -0.923904
    outer loop
      vertex 84.927 9 5.85317
      vertex 85.362 12 5.67302
      vertex 85.362 9 5.67302
    endloop
  endfacet
  facet normal -0.382624 0 -0.923904
    outer loop
      vertex 85.362 12 5.67302
      vertex 84.927 9 5.85317
      vertex 84.927 12 5.85317
    endloop
  endfacet
  facet normal -0.382624 0 -0.923904
    outer loop
      vertex 84.927 5 5.85317
      vertex 85.362 5 5.67302
      vertex 85.362 0 5.67302
    endloop
  endfacet
  facet normal -0.382624 -0 -0.923904
    outer loop
      vertex 84.927 5 5.85317
      vertex 85.362 0 5.67302
      vertex 84.927 0 5.85317
    endloop
  endfacet
  facet normal -0.382624 0 -0.923904
    outer loop
      vertex 85.362 5 5.67302
      vertex 84.927 5 5.85317
      vertex 85.362 6 5.67302
    endloop
  endfacet
  facet normal -0.382624 0 -0.923904
    outer loop
      vertex 85.362 6 5.67302
      vertex 84.927 5 5.85317
      vertex 84.927 6 5.85317
    endloop
  endfacet
  facet normal -0.0784703 0 -0.996916
    outer loop
      vertex 84 9 6
      vertex 84.4693 12 5.96306
      vertex 84.4693 9 5.96306
    endloop
  endfacet
  facet normal -0.0784703 0 -0.996916
    outer loop
      vertex 84.4693 12 5.96306
      vertex 84 9 6
      vertex 84 12 6
    endloop
  endfacet
  facet normal -0.0784703 0 -0.996916
    outer loop
      vertex 84 5 6
      vertex 84.4693 5 5.96306
      vertex 84.4693 0 5.96306
    endloop
  endfacet
  facet normal -0.0784703 -0 -0.996916
    outer loop
      vertex 84 5 6
      vertex 84.4693 0 5.96306
      vertex 84 0 6
    endloop
  endfacet
  facet normal -0.0784703 0 -0.996916
    outer loop
      vertex 84.4693 5 5.96306
      vertex 84 5 6
      vertex 84.4693 6 5.96306
    endloop
  endfacet
  facet normal -0.0784703 0 -0.996916
    outer loop
      vertex 84.4693 6 5.96306
      vertex 84 5 6
      vertex 84 6 6
    endloop
  endfacet
  facet normal 0.996923 0 -0.0783858
    outer loop
      vertex 81.0369 5 3.4693
      vertex 81 12 3
      vertex 81.0369 12 3.4693
    endloop
  endfacet
  facet normal 0.996923 0 -0.0783858
    outer loop
      vertex 81.0369 5 3.4693
      vertex 81 5 3
      vertex 81 12 3
    endloop
  endfacet
  facet normal 0.996923 0 -0.0783858
    outer loop
      vertex 81.0369 0 3.4693
      vertex 81 5 3
      vertex 81.0369 5 3.4693
    endloop
  endfacet
  facet normal 0.996923 0 -0.0783858
    outer loop
      vertex 81 5 3
      vertex 81.0369 0 3.4693
      vertex 81 0 3
    endloop
  endfacet
  facet normal 0.522486 0 -0.852648
    outer loop
      vertex 82.2366 9 5.42705
      vertex 82.638 12 5.67302
      vertex 82.638 9 5.67302
    endloop
  endfacet
  facet normal 0.522486 0 -0.852648
    outer loop
      vertex 82.638 12 5.67302
      vertex 82.2366 9 5.42705
      vertex 82.2366 12 5.42705
    endloop
  endfacet
  facet normal 0.522486 0 -0.852648
    outer loop
      vertex 82.2366 5 5.42705
      vertex 82.638 5 5.67302
      vertex 82.638 0 5.67302
    endloop
  endfacet
  facet normal 0.522486 0 -0.852648
    outer loop
      vertex 82.2366 5 5.42705
      vertex 82.638 0 5.67302
      vertex 82.2366 0 5.42705
    endloop
  endfacet
  facet normal 0.522486 0 -0.852648
    outer loop
      vertex 82.638 5 5.67302
      vertex 82.2366 5 5.42705
      vertex 82.638 6 5.67302
    endloop
  endfacet
  facet normal 0.522486 0 -0.852648
    outer loop
      vertex 82.638 6 5.67302
      vertex 82.2366 5 5.42705
      vertex 82.2366 6 5.42705
    endloop
  endfacet
  facet normal 0.972368 0 -0.233453
    outer loop
      vertex 81.1468 5 3.92705
      vertex 81.0369 12 3.4693
      vertex 81.1468 12 3.92705
    endloop
  endfacet
  facet normal 0.972368 0 -0.233453
    outer loop
      vertex 81.1468 5 3.92705
      vertex 81.0369 5 3.4693
      vertex 81.0369 12 3.4693
    endloop
  endfacet
  facet normal 0.972368 0 -0.233453
    outer loop
      vertex 81.1468 0 3.92705
      vertex 81.0369 5 3.4693
      vertex 81.1468 5 3.92705
    endloop
  endfacet
  facet normal 0.972368 0 -0.233453
    outer loop
      vertex 81.0369 5 3.4693
      vertex 81.1468 0 3.92705
      vertex 81.0369 0 3.4693
    endloop
  endfacet
  facet normal -0.923842 0 -0.382775
    outer loop
      vertex 86.8532 5 3.92705
      vertex 86.673 12 4.36197
      vertex 86.8532 12 3.92705
    endloop
  endfacet
  facet normal -0.923842 0 -0.382775
    outer loop
      vertex 86.8532 5 3.92705
      vertex 86.673 5 4.36197
      vertex 86.673 12 4.36197
    endloop
  endfacet
  facet normal -0.923842 0 -0.382775
    outer loop
      vertex 86.8532 0 3.92705
      vertex 86.673 5 4.36197
      vertex 86.8532 5 3.92705
    endloop
  endfacet
  facet normal -0.923842 -0 -0.382775
    outer loop
      vertex 86.673 5 4.36197
      vertex 86.8532 0 3.92705
      vertex 86.673 0 4.36197
    endloop
  endfacet
  facet normal -0.522486 0 -0.852648
    outer loop
      vertex 85.362 9 5.67302
      vertex 85.7634 12 5.42705
      vertex 85.7634 9 5.42705
    endloop
  endfacet
  facet normal -0.522486 0 -0.852648
    outer loop
      vertex 85.7634 12 5.42705
      vertex 85.362 9 5.67302
      vertex 85.362 12 5.67302
    endloop
  endfacet
  facet normal -0.522486 0 -0.852648
    outer loop
      vertex 85.362 5 5.67302
      vertex 85.7634 5 5.42705
      vertex 85.7634 0 5.42705
    endloop
  endfacet
  facet normal -0.522486 -0 -0.852648
    outer loop
      vertex 85.362 5 5.67302
      vertex 85.7634 0 5.42705
      vertex 85.362 0 5.67302
    endloop
  endfacet
  facet normal -0.522486 0 -0.852648
    outer loop
      vertex 85.7634 5 5.42705
      vertex 85.362 5 5.67302
      vertex 85.7634 6 5.42705
    endloop
  endfacet
  facet normal -0.522486 0 -0.852648
    outer loop
      vertex 85.7634 6 5.42705
      vertex 85.362 5 5.67302
      vertex 85.362 6 5.67302
    endloop
  endfacet
  facet normal 0.382624 0 -0.923904
    outer loop
      vertex 82.638 9 5.67302
      vertex 83.073 12 5.85317
      vertex 83.073 9 5.85317
    endloop
  endfacet
  facet normal 0.382624 0 -0.923904
    outer loop
      vertex 83.073 12 5.85317
      vertex 82.638 9 5.67302
      vertex 82.638 12 5.67302
    endloop
  endfacet
  facet normal 0.382624 0 -0.923904
    outer loop
      vertex 82.638 5 5.67302
      vertex 83.073 5 5.85317
      vertex 83.073 0 5.85317
    endloop
  endfacet
  facet normal 0.382624 0 -0.923904
    outer loop
      vertex 82.638 5 5.67302
      vertex 83.073 0 5.85317
      vertex 82.638 0 5.67302
    endloop
  endfacet
  facet normal 0.382624 0 -0.923904
    outer loop
      vertex 83.073 5 5.85317
      vertex 82.638 5 5.67302
      vertex 83.073 6 5.85317
    endloop
  endfacet
  facet normal 0.382624 0 -0.923904
    outer loop
      vertex 83.073 6 5.85317
      vertex 82.638 5 5.67302
      vertex 82.638 6 5.67302
    endloop
  endfacet
  facet normal 0.760459 0 -0.649386
    outer loop
      vertex 81.8787 6 5.12132
      vertex 81.8787 5 5.12132
      vertex 81.7751 6 5
    endloop
  endfacet
  facet normal 0.760459 0 -0.649386
    outer loop
      vertex 81.7751 9 5
      vertex 81.8787 12 5.12132
      vertex 81.8787 9 5.12132
    endloop
  endfacet
  facet normal 0.760434 2.03088e-06 -0.649415
    outer loop
      vertex 81.8787 12 5.12132
      vertex 81.7751 9 5
      vertex 81.573 12 4.76336
    endloop
  endfacet
  facet normal 0.760421 0 -0.64943
    outer loop
      vertex 81.573 5 4.76336
      vertex 81.7751 9 5
      vertex 81.7751 6 5
    endloop
  endfacet
  facet normal 0.760421 0 -0.64943
    outer loop
      vertex 81.7751 9 5
      vertex 81.573 5 4.76336
      vertex 81.573 12 4.76336
    endloop
  endfacet
  facet normal 0.760434 -6.09265e-06 -0.649415
    outer loop
      vertex 81.8787 5 5.12132
      vertex 81.573 5 4.76336
      vertex 81.7751 6 5
    endloop
  endfacet
  facet normal 0.760434 0 -0.649415
    outer loop
      vertex 81.8787 0 5.12132
      vertex 81.573 5 4.76336
      vertex 81.8787 5 5.12132
    endloop
  endfacet
  facet normal 0.760434 0 -0.649415
    outer loop
      vertex 81.573 5 4.76336
      vertex 81.8787 0 5.12132
      vertex 81.573 0 4.76336
    endloop
  endfacet
  facet normal 1 -0 0
    outer loop
      vertex 89 5 6.9
      vertex 89 6 5
      vertex 89 6 6.9
    endloop
  endfacet
  facet normal 1 0 0
    outer loop
      vertex 89 6 5
      vertex 89 5 6.9
      vertex 89 6 1.9
    endloop
  endfacet
  facet normal 1 0 0
    outer loop
      vertex 89 5 0
      vertex 89 6 1.9
      vertex 89 5 6.9
    endloop
  endfacet
  facet normal 1 0 0
    outer loop
      vertex 89 6 1.9
      vertex 89 5 0
      vertex 89 6 0
    endloop
  endfacet
  facet normal 1 -0 0
    outer loop
      vertex 89 6 5
      vertex 89 9 1.9
      vertex 89 9 5
    endloop
  endfacet
  facet normal 1 0 0
    outer loop
      vertex 89 9 1.9
      vertex 89 6 5
      vertex 89 6 1.9
    endloop
  endfacet
  facet normal 1 0 0
    outer loop
      vertex 89 9 5
      vertex 89 12 6.9
      vertex 89 9 6.9
    endloop
  endfacet
  facet normal 1 0 0
    outer loop
      vertex 89 12 6.9
      vertex 89 9 5
      vertex 89 12 0
    endloop
  endfacet
  facet normal 1 -0 0
    outer loop
      vertex 89 9 1.9
      vertex 89 12 0
      vertex 89 9 5
    endloop
  endfacet
  facet normal 1 0 0
    outer loop
      vertex 89 12 0
      vertex 89 9 1.9
      vertex 89 9 0
    endloop
  endfacet
  facet normal -1 0 0
    outer loop
      vertex 79 5 0
      vertex 79 6 1.9
      vertex 79 6 0
    endloop
  endfacet
  facet normal -1 -0 0
    outer loop
      vertex 79 6 1.9
      vertex 79 5 0
      vertex 79 6 5
    endloop
  endfacet
  facet normal -1 0 0
    outer loop
      vertex 79 5 6.9
      vertex 79 6 5
      vertex 79 5 0
    endloop
  endfacet
  facet normal -1 0 0
    outer loop
      vertex 79 6 5
      vertex 79 5 6.9
      vertex 79 6 6.9
    endloop
  endfacet
  facet normal -1 0 0
    outer loop
      vertex 79 6 1.9
      vertex 79 9 5
      vertex 79 9 1.9
    endloop
  endfacet
  facet normal -1 -0 0
    outer loop
      vertex 79 9 5
      vertex 79 6 1.9
      vertex 79 6 5
    endloop
  endfacet
  facet normal -1 0 0
    outer loop
      vertex 79 9 1.9
      vertex 79 12 0
      vertex 79 9 0
    endloop
  endfacet
  facet normal -1 0 0
    outer loop
      vertex 79 12 0
      vertex 79 9 1.9
      vertex 79 12 6.9
    endloop
  endfacet
  facet normal -1 0 0
    outer loop
      vertex 79 9 5
      vertex 79 12 6.9
      vertex 79 9 1.9
    endloop
  endfacet
  facet normal -1 -0 0
    outer loop
      vertex 79 12 6.9
      vertex 79 9 5
      vertex 79 9 6.9
    endloop
  endfacet
  facet normal 0 1 0
    outer loop
      vertex 89 12 6.9
      vertex 84 12 6
      vertex 79 12 6.9
    endloop
  endfacet
  facet normal 0 1 0
    outer loop
      vertex 89 12 6.9
      vertex 84.4693 12 5.96306
      vertex 84 12 6
    endloop
  endfacet
  facet normal 0 1 0
    outer loop
      vertex 89 12 6.9
      vertex 84.927 12 5.85317
      vertex 84.4693 12 5.96306
    endloop
  endfacet
  facet normal 0 1 0
    outer loop
      vertex 89 12 6.9
      vertex 85.362 12 5.67302
      vertex 84.927 12 5.85317
    endloop
  endfacet
  facet normal 0 1 0
    outer loop
      vertex 89 12 6.9
      vertex 85.7634 12 5.42705
      vertex 85.362 12 5.67302
    endloop
  endfacet
  facet normal 0 1 0
    outer loop
      vertex 89 12 6.9
      vertex 86.1213 12 5.12132
      vertex 85.7634 12 5.42705
    endloop
  endfacet
  facet normal 0 1 0
    outer loop
      vertex 89 12 6.9
      vertex 86.427 12 4.76336
      vertex 86.1213 12 5.12132
    endloop
  endfacet
  facet normal 0 1 0
    outer loop
      vertex 89 12 6.9
      vertex 86.673 12 4.36197
      vertex 86.427 12 4.76336
    endloop
  endfacet
  facet normal 0 1 0
    outer loop
      vertex 89 12 6.9
      vertex 86.8532 12 3.92705
      vertex 86.673 12 4.36197
    endloop
  endfacet
  facet normal 0 1 0
    outer loop
      vertex 89 12 6.9
      vertex 86.9631 12 3.4693
      vertex 86.8532 12 3.92705
    endloop
  endfacet
  facet normal 0 1 0
    outer loop
      vertex 89 12 6.9
      vertex 87 12 3
      vertex 86.9631 12 3.4693
    endloop
  endfacet
  facet normal 0 1 -0
    outer loop
      vertex 89 12 0
      vertex 87 12 3
      vertex 89 12 6.9
    endloop
  endfacet
  facet normal 0 1 0
    outer loop
      vertex 87 12 3
      vertex 89 12 0
      vertex 87 12 2.9
    endloop
  endfacet
  facet normal 0 1 0
    outer loop
      vertex 87 12 2.9
      vertex 89 12 0
      vertex 87 12 0
    endloop
  endfacet
  facet normal 0 1 -0
    outer loop
      vertex 83.5307 12 5.96306
      vertex 79 12 6.9
      vertex 84 12 6
    endloop
  endfacet
  facet normal 0 1 -0
    outer loop
      vertex 83.073 12 5.85317
      vertex 79 12 6.9
      vertex 83.5307 12 5.96306
    endloop
  endfacet
  facet normal 0 1 -0
    outer loop
      vertex 82.638 12 5.67302
      vertex 79 12 6.9
      vertex 83.073 12 5.85317
    endloop
  endfacet
  facet normal 0 1 -0
    outer loop
      vertex 82.2366 12 5.42705
      vertex 79 12 6.9
      vertex 82.638 12 5.67302
    endloop
  endfacet
  facet normal 0 1 -0
    outer loop
      vertex 81.8787 12 5.12132
      vertex 79 12 6.9
      vertex 82.2366 12 5.42705
    endloop
  endfacet
  facet normal 0 1 -0
    outer loop
      vertex 81.573 12 4.76336
      vertex 79 12 6.9
      vertex 81.8787 12 5.12132
    endloop
  endfacet
  facet normal 0 1 -0
    outer loop
      vertex 81.327 12 4.36197
      vertex 79 12 6.9
      vertex 81.573 12 4.76336
    endloop
  endfacet
  facet normal 0 1 -0
    outer loop
      vertex 81.1468 12 3.92705
      vertex 79 12 6.9
      vertex 81.327 12 4.36197
    endloop
  endfacet
  facet normal 0 1 -0
    outer loop
      vertex 81.0369 12 3.4693
      vertex 79 12 6.9
      vertex 81.1468 12 3.92705
    endloop
  endfacet
  facet normal 0 1 -0
    outer loop
      vertex 81 12 3
      vertex 79 12 6.9
      vertex 81.0369 12 3.4693
    endloop
  endfacet
  facet normal 0 1 0
    outer loop
      vertex 81 12 2.9
      vertex 81 12 3
      vertex 81.0079 12 2.9
    endloop
  endfacet
  facet normal 0 1 0
    outer loop
      vertex 79 12 0
      vertex 81 12 3
      vertex 81 12 2.9
    endloop
  endfacet
  facet normal 0 1 0
    outer loop
      vertex 79 12 0
      vertex 81 12 2.9
      vertex 81 12 0
    endloop
  endfacet
  facet normal 0 1 0
    outer loop
      vertex 81 12 3
      vertex 79 12 0
      vertex 79 12 6.9
    endloop
  endfacet
  facet normal 0 1 0
    outer loop
      vertex 87 12 3
      vertex 87 12 2.9
      vertex 86.9921 12 2.9
    endloop
  endfacet
  facet normal 0 0 -1
    outer loop
      vertex 79 6 1.9
      vertex 81 9 1.9
      vertex 81 6 1.9
    endloop
  endfacet
  facet normal -0 0 -1
    outer loop
      vertex 81 9 1.9
      vertex 79 6 1.9
      vertex 79 9 1.9
    endloop
  endfacet
  facet normal 0 0 -1
    outer loop
      vertex 87 6 1.9
      vertex 89 9 1.9
      vertex 89 6 1.9
    endloop
  endfacet
  facet normal -0 0 -1
    outer loop
      vertex 89 9 1.9
      vertex 87 6 1.9
      vertex 87 9 1.9
    endloop
  endfacet
  facet normal 0 -1 0
    outer loop
      vertex 79 9 0
      vertex 81 9 1.9
      vertex 79 9 1.9
    endloop
  endfacet
  facet normal 0 -1 -0
    outer loop
      vertex 81 9 1.9
      vertex 79 9 0
      vertex 81 9 0
    endloop
  endfacet
  facet normal 0 -1 0
    outer loop
      vertex 87 9 0
      vertex 89 9 1.9
      vertex 87 9 1.9
    endloop
  endfacet
  facet normal 0 -1 -0
    outer loop
      vertex 89 9 1.9
      vertex 87 9 0
      vertex 89 9 0
    endloop
  endfacet
  facet normal 0 1 -0
    outer loop
      vertex 81 6 0
      vertex 79 6 1.9
      vertex 81 6 1.9
    endloop
  endfacet
  facet normal 0 1 0
    outer loop
      vertex 79 6 1.9
      vertex 81 6 0
      vertex 79 6 0
    endloop
  endfacet
  facet normal 0 1 -0
    outer loop
      vertex 89 6 0
      vertex 87 6 1.9
      vertex 89 6 1.9
    endloop
  endfacet
  facet normal 0 1 0
    outer loop
      vertex 87 6 1.9
      vertex 89 6 0
      vertex 87 6 0
    endloop
  endfacet
  facet normal -0 0 1
    outer loop
      vertex 79 9 5
      vertex 81.7751 6 5
      vertex 81.7751 9 5
    endloop
  endfacet
  facet normal 0 0 1
    outer loop
      vertex 81.7751 6 5
      vertex 79 9 5
      vertex 79 6 5
    endloop
  endfacet
  facet normal -0 0 1
    outer loop
      vertex 86.2249 9 5
      vertex 89 6 5
      vertex 89 9 5
    endloop
  endfacet
  facet normal 0 0 1
    outer loop
      vertex 89 6 5
      vertex 86.2249 9 5
      vertex 86.2249 6 5
    endloop
  endfacet
  facet normal 0 -1 0
    outer loop
      vertex 79 9 6.9
      vertex 84 9 6
      vertex 89 9 6.9
    endloop
  endfacet
  facet normal 0 -1 0
    outer loop
      vertex 79 9 6.9
      vertex 83.5307 9 5.96306
      vertex 84 9 6
    endloop
  endfacet
  facet normal 0 -1 0
    outer loop
      vertex 79 9 6.9
      vertex 83.073 9 5.85317
      vertex 83.5307 9 5.96306
    endloop
  endfacet
  facet normal 0 -1 0
    outer loop
      vertex 79 9 6.9
      vertex 82.638 9 5.67302
      vertex 83.073 9 5.85317
    endloop
  endfacet
  facet normal 0 -1 0
    outer loop
      vertex 79 9 6.9
      vertex 82.2366 9 5.42705
      vertex 82.638 9 5.67302
    endloop
  endfacet
  facet normal 0 -1 0
    outer loop
      vertex 79 9 6.9
      vertex 81.8787 9 5.12132
      vertex 82.2366 9 5.42705
    endloop
  endfacet
  facet normal 0 -1 0
    outer loop
      vertex 81.7751 9 5
      vertex 79 9 6.9
      vertex 79 9 5
    endloop
  endfacet
  facet normal 0 -1 0
    outer loop
      vertex 79 9 6.9
      vertex 81.7751 9 5
      vertex 81.8787 9 5.12132
    endloop
  endfacet
  facet normal 0 -1 0
    outer loop
      vertex 84.4693 9 5.96306
      vertex 89 9 6.9
      vertex 84 9 6
    endloop
  endfacet
  facet normal 0 -1 0
    outer loop
      vertex 84.927 9 5.85317
      vertex 89 9 6.9
      vertex 84.4693 9 5.96306
    endloop
  endfacet
  facet normal 0 -1 0
    outer loop
      vertex 85.362 9 5.67302
      vertex 89 9 6.9
      vertex 84.927 9 5.85317
    endloop
  endfacet
  facet normal 0 -1 0
    outer loop
      vertex 85.7634 9 5.42705
      vertex 89 9 6.9
      vertex 85.362 9 5.67302
    endloop
  endfacet
  facet normal 0 -1 0
    outer loop
      vertex 86.1213 9 5.12132
      vertex 89 9 6.9
      vertex 85.7634 9 5.42705
    endloop
  endfacet
  facet normal 0 -1 0
    outer loop
      vertex 86.2249 9 5
      vertex 89 9 6.9
      vertex 86.1213 9 5.12132
    endloop
  endfacet
  facet normal 0 -1 -0
    outer loop
      vertex 89 9 6.9
      vertex 86.2249 9 5
      vertex 89 9 5
    endloop
  endfacet
  facet normal 0 1 0
    outer loop
      vertex 89 6 6.9
      vertex 84 6 6
      vertex 79 6 6.9
    endloop
  endfacet
  facet normal 0 1 0
    outer loop
      vertex 89 6 6.9
      vertex 84.4693 6 5.96306
      vertex 84 6 6
    endloop
  endfacet
  facet normal 0 1 0
    outer loop
      vertex 89 6 6.9
      vertex 84.927 6 5.85317
      vertex 84.4693 6 5.96306
    endloop
  endfacet
  facet normal 0 1 0
    outer loop
      vertex 89 6 6.9
      vertex 85.362 6 5.67302
      vertex 84.927 6 5.85317
    endloop
  endfacet
  facet normal 0 1 0
    outer loop
      vertex 89 6 6.9
      vertex 85.7634 6 5.42705
      vertex 85.362 6 5.67302
    endloop
  endfacet
  facet normal 0 1 0
    outer loop
      vertex 89 6 6.9
      vertex 86.1213 6 5.12132
      vertex 85.7634 6 5.42705
    endloop
  endfacet
  facet normal 0 1 0
    outer loop
      vertex 86.2249 6 5
      vertex 89 6 6.9
      vertex 89 6 5
    endloop
  endfacet
  facet normal 0 1 0
    outer loop
      vertex 89 6 6.9
      vertex 86.2249 6 5
      vertex 86.1213 6 5.12132
    endloop
  endfacet
  facet normal 0 1 -0
    outer loop
      vertex 83.5307 6 5.96306
      vertex 79 6 6.9
      vertex 84 6 6
    endloop
  endfacet
  facet normal 0 1 -0
    outer loop
      vertex 83.073 6 5.85317
      vertex 79 6 6.9
      vertex 83.5307 6 5.96306
    endloop
  endfacet
  facet normal 0 1 -0
    outer loop
      vertex 82.638 6 5.67302
      vertex 79 6 6.9
      vertex 83.073 6 5.85317
    endloop
  endfacet
  facet normal 0 1 -0
    outer loop
      vertex 82.2366 6 5.42705
      vertex 79 6 6.9
      vertex 82.638 6 5.67302
    endloop
  endfacet
  facet normal 0 1 -0
    outer loop
      vertex 81.8787 6 5.12132
      vertex 79 6 6.9
      vertex 82.2366 6 5.42705
    endloop
  endfacet
  facet normal 0 1 -0
    outer loop
      vertex 81.7751 6 5
      vertex 79 6 6.9
      vertex 81.8787 6 5.12132
    endloop
  endfacet
  facet normal 0 1 0
    outer loop
      vertex 79 6 6.9
      vertex 81.7751 6 5
      vertex 79 6 5
    endloop
  endfacet
endsolid OpenSCAD_Model
